HIERARCHY
ROOT Reference
{
  OFFSET 0 0 0
  CHANNELS 6 Xposition Yposition Zposition Zrotation Xrotation Yrotation
  JOINT Hips
  {
    OFFSET 251.394 724.17 483.536
    CHANNELS 3 Zrotation Xrotation Yrotation
    JOINT RightUpLeg
    {
      OFFSET -0.450515 -23.4426 -1.37224
      CHANNELS 3 Zrotation Xrotation Yrotation
      JOINT RightLeg
      {
        OFFSET 112.821 0.0872427 -0.321027
        CHANNELS 3 Zrotation Xrotation Yrotation
        JOINT RightFoot
        {
          OFFSET 105.718 0.000193788 0.0213165
          CHANNELS 3 Zrotation Xrotation Yrotation
          JOINT RightToeBase
          {
            OFFSET 37.638 -0.000116272 0.00224792
            CHANNELS 3 Zrotation Xrotation Yrotation
            JOINT RightToeEnd
            {
              OFFSET 21.2112 0.114605 -0.000138184
              CHANNELS 3 Zrotation Xrotation Yrotation
              End Site
              {
                OFFSET 0 0 0
              }
            }
          }
        }
      }
    }
    JOINT LeftUpLeg
    {
      OFFSET -0.449508 23.4315 -1.37054
      CHANNELS 3 Zrotation Xrotation Yrotation
      JOINT LeftLeg
      {
        OFFSET 112.821 -0.0485242 -0.372458
        CHANNELS 3 Zrotation Xrotation Yrotation
        JOINT LeftFoot
        {
          OFFSET 105.716 0.00496094 -0.0229443
          CHANNELS 3 Zrotation Xrotation Yrotation
          JOINT LeftToeBase
          {
            OFFSET 37.639 0 0.00158905
            CHANNELS 3 Zrotation Xrotation Yrotation
            JOINT LeftToeEnd
            {
              OFFSET 21.2113 -0.125031 -0.00017438
              CHANNELS 3 Zrotation Xrotation Yrotation
              End Site
              {
                OFFSET 0 0 0
              }
            }
          }
        }
      }
    }
    JOINT Spine
    {
      OFFSET -5.01225 0.000463591 -9.60395
      CHANNELS 3 Zrotation Xrotation Yrotation
      JOINT Spine1
      {
        OFFSET 26.0222 -0.000271301 -0.000155029
        CHANNELS 3 Zrotation Xrotation Yrotation
        JOINT Spine2
        {
          OFFSET 27.173 -0.000155029 -0.000310058
          CHANNELS 3 Zrotation Xrotation Yrotation
          JOINT Spine3
          {
            OFFSET 36.3953 -0.000232544 7.75146e-005
            CHANNELS 3 Zrotation Xrotation Yrotation
            JOINT Neck
            {
              OFFSET 36.4331 0 -3.00261
              CHANNELS 3 Zrotation Xrotation Yrotation
              JOINT Head
              {
                OFFSET 23.0407 -0.000232544 -0.000310058
                CHANNELS 3 Zrotation Xrotation Yrotation
                End Site
                {
                  OFFSET 0 0 0
                }
              }
            }
            JOINT LeftShoulder
            {
              OFFSET 20.1317 6.74168 -12.6061
              CHANNELS 3 Zrotation Xrotation Yrotation
              JOINT LeftArm
              {
                OFFSET 34.2172 -5.81359e-005 7.75146e-005
                CHANNELS 3 Zrotation Xrotation Yrotation
                JOINT LeftForeArm
                {
                  OFFSET 65.4129 -0.0821605 0.0585235
                  CHANNELS 3 Zrotation Xrotation Yrotation
                  JOINT LeftHand
                  {
                    OFFSET 67.3883 0.0359667 0.0112396
                    CHANNELS 3 Zrotation Xrotation Yrotation
                    JOINT LeftHandThumb1
                    {
                      OFFSET 8.78386 2.85353 -6.05362
                      CHANNELS 3 Zrotation Xrotation Yrotation
                      JOINT LeftHandThumb2
                      {
                        OFFSET 8.25498 -0.000116272 -0.000174407
                        CHANNELS 3 Zrotation Xrotation Yrotation
                        JOINT LeftHandThumb3
                        {
                          OFFSET 7.24822 0.000310058 5.81358e-005
                          CHANNELS 3 Zrotation Xrotation Yrotation
                          JOINT LeftHandThumb4
                          {
                            OFFSET 7.0004 -3.87568e-005 -0.000310057
                            CHANNELS 3 Zrotation Xrotation Yrotation
                            End Site
                            {
                              OFFSET 0 0 0
                            }
                          }
                        }
                      }
                    }
                    JOINT LeftHandIndex1
                    {
                      OFFSET 24.0991 -1.01537 -5.40558
                      CHANNELS 3 Zrotation Xrotation Yrotation
                      JOINT LeftHandIndex2
                      {
                        OFFSET 7.26759 -0.000290679 -0.000465086
                        CHANNELS 3 Zrotation Xrotation Yrotation
                        JOINT LeftHandIndex3
                        {
                          OFFSET 7.13628 -1.93787e-005 0.000232543
                          CHANNELS 3 Zrotation Xrotation Yrotation
                          JOINT LeftHandIndex4
                          {
                            OFFSET 5.46699 9.68932e-005 -0.000387571
                            CHANNELS 3 Zrotation Xrotation Yrotation
                            End Site
                            {
                              OFFSET 0 0 0
                            }
                          }
                        }
                      }
                    }
                    JOINT LeftHandMiddle1
                    {
                      OFFSET 24.4604 -2.52837 0.918567
                      CHANNELS 3 Zrotation Xrotation Yrotation
                      JOINT LeftHandMiddle2
                      {
                        OFFSET 7.41627 -5.81359e-005 0.000116271
                        CHANNELS 3 Zrotation Xrotation Yrotation
                        JOINT LeftHandMiddle3
                        {
                          OFFSET 8.76829 3.87573e-005 -7.75142e-005
                          CHANNELS 3 Zrotation Xrotation Yrotation
                          JOINT LeftHandMiddle4
                          {
                            OFFSET 6.07588 -0.00013565 -5.81356e-005
                            CHANNELS 3 Zrotation Xrotation Yrotation
                            End Site
                            {
                              OFFSET 0 0 0
                            }
                          }
                        }
                      }
                    }
                    JOINT LeftHandRing1
                    {
                      OFFSET 22.465 -1.97467 6.3466
                      CHANNELS 3 Zrotation Xrotation Yrotation
                      JOINT LeftHandRing2
                      {
                        OFFSET 7.36666 -0.000232544 0.000387571
                        CHANNELS 3 Zrotation Xrotation Yrotation
                        JOINT LeftHandRing3
                        {
                          OFFSET 8.07624 -0.000465087 -0.000203475
                          CHANNELS 3 Zrotation Xrotation Yrotation
                          JOINT LeftHandRing4
                          {
                            OFFSET 6.04433 0.00013565 3.87571e-005
                            CHANNELS 3 Zrotation Xrotation Yrotation
                            End Site
                            {
                              OFFSET 0 0 0
                            }
                          }
                        }
                      }
                    }
                    JOINT LeftHandPinky1
                    {
                      OFFSET 19.5278 0.352933 10.4295
                      CHANNELS 3 Zrotation Xrotation Yrotation
                      JOINT LeftHandPinky2
                      {
                        OFFSET 6.16525 5.8136e-005 -0.000251921
                        CHANNELS 3 Zrotation Xrotation Yrotation
                        JOINT LeftHandPinky3
                        {
                          OFFSET 6.14448 -0.000329434 -0.00510625
                          CHANNELS 3 Zrotation Xrotation Yrotation
                          JOINT LeftHandPinky4
                          {
                            OFFSET 4.98555 0.000116272 0.000116271
                            CHANNELS 3 Zrotation Xrotation Yrotation
                            End Site
                            {
                              OFFSET 0 0 0
                            }
                          }
                        }
                      }
                    }
                  }
                }
              }
            }
            JOINT RightShoulder
            {
              OFFSET 20.1309 -6.74152 -12.6063
              CHANNELS 3 Zrotation Xrotation Yrotation
              JOINT RightArm
              {
                OFFSET 34.2171 7.75146e-005 7.75146e-005
                CHANNELS 3 Zrotation Xrotation Yrotation
                JOINT RightForeArm
                {
                  OFFSET 65.4492 0.242543 -0.176501
                  CHANNELS 3 Zrotation Xrotation Yrotation
                  JOINT RightHand
                  {
                    OFFSET 67.3888 -0.0867388 0.0597442
                    CHANNELS 3 Zrotation Xrotation Yrotation
                    JOINT RightHandThumb1
                    {
                      OFFSET 8.78307 -2.85357 -6.05302
                      CHANNELS 3 Zrotation Xrotation Yrotation
                      JOINT RightHandThumb2
                      {
                        OFFSET 8.25493 -7.75145e-005 0
                        CHANNELS 3 Zrotation Xrotation Yrotation
                        JOINT RightHandThumb3
                        {
                          OFFSET 7.24797 -0.000174408 0.000155029
                          CHANNELS 3 Zrotation Xrotation Yrotation
                          JOINT RightHandThumb4
                          {
                            OFFSET 7.00062 0 0
                            CHANNELS 3 Zrotation Xrotation Yrotation
                            End Site
                            {
                              OFFSET 0 0 0
                            }
                          }
                        }
                      }
                    }
                    JOINT RightHandIndex1
                    {
                      OFFSET 24.0991 1.01525 -5.40578
                      CHANNELS 3 Zrotation Xrotation Yrotation
                      JOINT RightHandIndex2
                      {
                        OFFSET 7.26773 7.75144e-005 0.000232543
                        CHANNELS 3 Zrotation Xrotation Yrotation
                        JOINT RightHandIndex3
                        {
                          OFFSET 7.13572 -0.000310058 3.87571e-005
                          CHANNELS 3 Zrotation Xrotation Yrotation
                          JOINT RightHandIndex4
                          {
                            OFFSET 5.46717 0 3.87572e-005
                            CHANNELS 3 Zrotation Xrotation Yrotation
                            End Site
                            {
                              OFFSET 0 0 0
                            }
                          }
                        }
                      }
                    }
                    JOINT RightHandMiddle1
                    {
                      OFFSET 24.4603 2.52899 0.918547
                      CHANNELS 3 Zrotation Xrotation Yrotation
                      JOINT RightHandMiddle2
                      {
                        OFFSET 7.41641 -0.000116272 -0.000116272
                        CHANNELS 3 Zrotation Xrotation Yrotation
                        JOINT RightHandMiddle3
                        {
                          OFFSET 8.76765 -3.87577e-005 0.000232543
                          CHANNELS 3 Zrotation Xrotation Yrotation
                          JOINT RightHandMiddle4
                          {
                            OFFSET 6.07609 -0.000193787 -0.000116271
                            CHANNELS 3 Zrotation Xrotation Yrotation
                            End Site
                            {
                              OFFSET 0 0 0
                            }
                          }
                        }
                      }
                    }
                    JOINT RightHandRing1
                    {
                      OFFSET 22.465 1.97571 6.34696
                      CHANNELS 3 Zrotation Xrotation Yrotation
                      JOINT RightHandRing2
                      {
                        OFFSET 7.36684 0.000193786 0.000155029
                        CHANNELS 3 Zrotation Xrotation Yrotation
                        JOINT RightHandRing3
                        {
                          OFFSET 8.07614 -0.000271301 0
                          CHANNELS 3 Zrotation Xrotation Yrotation
                          JOINT RightHandRing4
                          {
                            OFFSET 6.04468 0.000232543 0
                            CHANNELS 3 Zrotation Xrotation Yrotation
                            End Site
                            {
                              OFFSET 0 0 0
                            }
                          }
                        }
                      }
                    }
                    JOINT RightHandPinky1
                    {
                      OFFSET 19.5277 -0.352346 10.4296
                      CHANNELS 3 Zrotation Xrotation Yrotation
                      JOINT RightHandPinky2
                      {
                        OFFSET 6.16508 0 0.000232543
                        CHANNELS 3 Zrotation Xrotation Yrotation
                        JOINT RightHandPinky3
                        {
                          OFFSET 6.14396 -0.000155048 -0.0048834
                          CHANNELS 3 Zrotation Xrotation Yrotation
                          JOINT RightHandPinky4
                          {
                            OFFSET 4.98577 -7.75146e-005 -7.75143e-005
                            CHANNELS 3 Zrotation Xrotation Yrotation
                            End Site
                            {
                              OFFSET 0 0 0
                            }
                          }
                        }
                      }
                    }
                  }
                }
              }
            }
          }
        }
      }
    }
  }
}
MOTION
Frames:	4
Frame Time:	0.0333333
0 0 0 -90 -7.01671e-015 -180 -10.0542 -65.0138 -103.983 -139.705 -15.8281 -20.5956 0.652674 -1.16436 -150.574 1.59595 11.8296 88.5358 -11.299 4.22588 75.941 6.62302e-007 -9.96914e-006 -86.4974 135.668 14.2888 -26.924 -0.199772 0.318844 -147.495 0.0485291 2.51609 99.3684 -0.625794 0.432219 68.337 1.7679e-005 -1.70618e-005 -86.4974 -4.15825e-005 -1.0507e-005 133.519 4.08427 -0.421428 -12.727 10.4351 -0.479528 -13.206 0.0113706 -0.471191 -13.6179 1.49937 34.0883 6.19867 6.09914 15.2942 53.3396 97.1476 24.3757 -4.27401 45.6214 25.5222 73.9682 -19.322 15.9125 51.2999 -165.6 -13.4872 -157.482 -150.267 -12.5762 143.995 0.000376567 -2.30346e-005 11.0179 0.000273328 -0.000216637 5.06363 0.000246099 -0.00133374 -0.000122727 -95.7925 87.8369 106.042 -0.000400922 -0.000263983 10.3944 0.00115088 -0.000775822 12.8203 -0.00057096 -0.000517144 -0.234114 16.5543 89.9994 15.12 0.000120917 -0.000368104 22.5169 0.000920207 -0.000839262 9.40397 -0.000625569 -0.00046789 -0.153676 96.6563 87.7585 -59.7307 0.000299815 -0.000844346 27.4282 0.00152333 -0.000723971 14.3354 -0.000601565 -0.000667152 -0.0890707 73.8521 81.8725 -30.4357 0.0011693 -0.00136481 18.0729 0.000655995 -2.8099e-005 26.9745 -5.8896e-005 -3.57872e-005 -0.212238 -65.0061 -23.8829 -2.14608 -39.9555 3.8881 79.4128 10.0136 34.3796 65.9251 29.4351 56.6808 -35.6612 173.375 50.1255 136.622 -8.34993e-005 -9.33263e-005 5.0095 0.000173636 0.000154657 25.7995 -1.55107e-005 -0.00012207 179.882 -100.42 -79.0802 -71.783 -0.000179144 0.00014967 54.6252 0.000178278 -5.33646e-005 51.8874 -0.000121985 3.05174e-005 179.839 -15.4718 -85.6675 19.7588 -5.1379e-005 7.69051e-005 65.9843 0.00011836 -7.6705e-005 28.9974 -1.52339e-005 3.05175e-005 179.953 -16.1779 -83.9648 32.3102 -7.52199e-006 0.00018206 38.6713 9.91216e-005 -0.000224391 41.1952 1.50874e-005 -6.10349e-005 179.839 -20.9215 -81.3854 5.33327 -9.6759e-005 5.21669e-005 45.7781 -3.21158e-005 -7.55055e-006 33.0153 1.51303e-005 -4.57762e-005 179.839 
0 0 0 -90 -7.01671e-015 -180 -9.84358 -64.7293 -103.144 -140.846 -16.8166 -23.2892 0.677456 -1.16726 -149.71 1.00053 12.5562 87.2714 -14.6401 5.69751 77.8992 9.64529e-007 -1.34923e-005 -86.4974 137.125 16.0506 -29.1537 -0.228075 0.352962 -146.702 1.06442 3.15517 98.8189 -0.629016 0.427496 68.7678 1.80826e-005 -2.20762e-005 -86.4974 -3.05176e-005 2.1719e-014 131.996 4.45537 -0.0307169 -13.3869 10.868 -0.176126 -12.6303 0.00553628 -0.543127 -14.4575 0.574718 34.7122 7.86336 6.41809 15.1604 54.2431 96.9383 24.0188 -4.534 47.0941 28.0186 70.4105 -18.4724 15.8945 53.305 -167.377 -14.4734 -156.434 -150.267 -12.5762 143.995 0.000376764 -2.58808e-005 11.0179 0.000273402 -0.000232285 5.06363 0.000246099 -0.00138427 -0.000122727 -95.7923 87.8369 106.042 -0.000400709 -0.000267339 10.3944 0.0011508 -0.000775686 12.8203 -0.000565578 -0.000517153 -0.235664 16.1828 89.9994 15.4916 0.000125452 -0.000371026 22.5169 0.000921364 -0.000838142 9.40769 -0.000620455 -0.000461038 -0.159021 96.6562 87.7585 -59.7306 0.000301817 -0.000845468 27.4291 0.00152306 -0.000729889 14.3354 -0.000606733 -0.0006671 -0.0974685 73.8519 81.8725 -30.4355 0.00116889 -0.00136441 18.0729 0.000599971 -5.51826e-005 26.9755 -5.88915e-005 -3.57841e-005 -0.213642 -64.94 -23.8754 -2.14856 -41.5131 -0.814022 75.3419 4.99703 34.7841 74.1447 28.4377 52.1088 -33.073 173.375 50.1255 136.622 -8.14052e-005 4.48143e-005 5.0095 0.000171937 0.000140081 25.7995 -1.55113e-005 -0.00012207 179.881 -100.42 -79.0802 -71.7834 -0.000180906 0.000138806 54.6252 0.000179931 -8.36901e-005 51.8874 -0.000121984 3.05174e-005 179.839 -15.4721 -85.6675 19.7585 -5.35472e-005 5.83508e-005 65.9843 0.000116767 -0.000135736 28.9974 -1.52331e-005 3.05175e-005 179.952 -16.178 -83.9647 32.3101 -8.97328e-006 0.000136522 38.6713 0.00010283 -0.000221331 41.1952 1.5087e-005 -6.10349e-005 179.839 -20.9215 -81.3853 5.33328 -8.56074e-005 0.000181614 45.7781 -2.99214e-005 -8.62472e-006 33.0153 1.513e-005 -4.57762e-005 179.839 
0 0 0 -90 -7.01671e-015 -180 -9.75185 -64.3244 -102.97 -142.116 -18.8239 -26.8804 0.690323 -1.13637 -148.542 -0.139007 12.3234 86.1649 -17.583 6.90666 79.9616 1.29287e-006 -1.66892e-005 -86.4974 138.703 17.6795 -32.0226 -0.285635 0.425758 -145.742 1.9525 2.67776 97.7659 -0.0712403 0.210371 68.9037 1.85049e-005 -3.29842e-005 -86.4974 -7.30532e-006 1.9812e-005 130.481 4.57679 0.652121 -13.5042 11.6106 0.0523536 -12.0814 -8.38875e-005 -0.728829 -15.114 -0.238539 35.3914 9.28436 6.72819 15.355 55.451 96.8187 23.7574 -4.80135 48.6184 30.3088 66.5752 -17.6742 16.0551 55.5897 -169.166 -15.4595 -155.49 -150.267 -12.5763 143.995 0.000377273 -3.11809e-005 11.0179 0.000273577 -0.000263758 5.06363 0.000246099 -0.00148445 -0.000122726 -95.7915 87.8369 106.041 -0.000400942 -0.000272771 10.3944 0.00115098 -0.000775524 12.8203 -0.000569168 -0.000520556 -0.237211 15.4239 89.9994 16.2505 0.00011502 -0.000387146 22.5168 0.000921266 -0.000841404 9.4114 -0.000616197 -0.000451621 -0.164376 96.6557 87.7585 -59.7301 0.000297484 -0.000845041 27.43 0.00152305 -0.000739195 14.3354 -0.000608489 -0.000667048 -0.105868 73.8516 81.8725 -30.4352 0.00116908 -0.00136806 18.0729 0.000548779 -8.37563e-005 26.9765 -5.88858e-005 -3.5354e-005 -0.215045 -64.8612 -23.8664 -2.15102 -43.4059 -5.51091 70.7685 -0.815372 33.9539 82.9149 27.6459 47.0517 -30.0873 173.375 50.1254 136.622 -8.18749e-005 4.19271e-005 5.0095 0.00017079 0.000111437 25.7995 -1.55119e-005 -0.00012207 179.881 -100.42 -79.0802 -71.7825 -0.000180639 0.000127958 54.6252 0.000173494 -0.000156533 51.8874 -0.000121984 3.05174e-005 179.838 -15.4716 -85.6674 19.759 -5.22632e-005 4.58488e-005 65.9843 0.000117262 -1.5185e-005 28.9974 -1.52455e-005 1.52588e-005 179.95 -16.178 -83.9647 32.31 1.77061e-006 6.91118e-005 38.6713 0.000103366 -0.000224444 41.1952 1.50866e-005 -6.10349e-005 179.838 -20.9215 -81.3853 5.33326 -8.69813e-005 0.000171498 45.7781 -2.2758e-005 -6.43825e-006 33.0153 1.50866e-005 -6.10349e-005 179.838 
0 0 0 -90 -7.01671e-015 -180 -9.32757 -63.8408 -103.218 -143.816 -20.9969 -31.3378 0.680171 -1.05604 -147.019 -1.1932 12.2693 84.2911 -22.1549 9.32604 82.0238 2.12229e-006 -2.34199e-005 -86.4974 140.695 19.2854 -35.527 -0.362196 0.516918 -144.632 2.82993 0.952982 96.1693 2.52082 -0.824116 70.591 1.93406e-005 -4.98716e-005 -86.4974 3.05176e-005 2.04621e-014 129.076 4.27251 1.27781 -13.1398 12.5447 0.276555 -11.3933 -0.000381576 -0.952562 -15.179 -0.455213 36.2224 9.64272 6.85694 15.8002 56.5311 96.9606 23.6708 -5.28852 49.6278 31.7062 63.0505 -16.506 16.3619 58.2233 -171.025 -16.6502 -154.435 -150.267 -12.5764 143.995 0.00037736 -4.22454e-005 11.0179 0.00027364 -0.000326771 5.06363 0.000245458 -0.00128323 -0.00012134 -95.7906 87.8369 106.04 -0.000400641 -0.000284014 10.3944 0.00115082 -0.000777858 12.8203 -0.000569169 -0.000517136 -0.238757 13.8693 89.9993 17.8051 0.00012359 -0.00040502 22.5169 0.00092195 -0.000838385 9.41511 -0.000612788 -0.00044477 -0.169726 96.6547 87.7585 -59.7292 0.000297761 -0.000842654 27.4308 0.00152282 -0.000759511 14.3354 -0.000609389 -0.00066614 -0.114266 73.851 81.8724 -30.4346 0.00116849 -0.0013727 18.0729 0.000493039 -0.000111132 26.9776 -5.46081e-005 -3.3655e-005 -0.216447 -64.7701 -23.856 -2.15323 -45.4287 -9.716 66.1177 -6.64601 31.751 91.3139 27.2362 42.0661 -26.6773 173.375 50.1254 136.622 -8.22095e-005 4.00492e-005 5.0095 0.000168986 5.65234e-005 25.7995 -1.55125e-005 -0.00012207 179.881 -100.42 -79.0802 -71.7825 -0.00017876 0.000116784 54.6252 0.000175547 -2.35257e-005 51.8874 -0.000121984 3.05174e-005 179.838 -15.4716 -85.6674 19.759 -4.75383e-005 4.06031e-005 65.9843 0.000118411 -1.8274e-005 28.9974 -1.52451e-005 1.52588e-005 179.949 -16.1781 -83.9647 32.31 -8.14057e-006 0.000168818 38.6713 0.00010396 -0.000228821 41.1952 1.50862e-005 -6.10349e-005 179.838 -20.9215 -81.3853 5.33328 -8.84428e-005 0.000161237 45.7781 -2.03662e-005 -1.38372e-005 33.0153 1.50862e-005 -6.10349e-005 179.838 
